<?xml version="1.0" standalone="no"?>
<!DOCTYPE svg PUBLIC "-//W3C//DTD SVG 20010904//EN"
 "http://www.w3.org/TR/2001/REC-SVG-20010904/DTD/svg10.dtd">
<svg version="1.0" xmlns="http://www.w3.org/2000/svg"
 width="4269.000000pt" height="2400.000000pt" viewBox="0 0 4269.000000 2400.000000"
 preserveAspectRatio="xMidYMid meet">

<g transform="translate(0.000000,2400.000000) scale(0.100000,-0.100000)"
fill="#000000" stroke="none">
<path d="M13137 17238 c-9 -46 -19 -96 -22 -113 -3 -16 -9 -43 -12 -58 -3 -17
-16 -33 -33 -42 -32 -16 -80 -70 -80 -89 0 -10 -32 -15 -117 -19 -133 -7 -197
-22 -388 -95 -280 -108 -493 -164 -523 -139 -9 7 -16 7 -24 -1 -17 -17 -65
-14 -128 8 -62 21 -80 17 -53 -12 24 -26 80 -55 126 -63 35 -7 37 -9 37 -45 0
-31 -196 -630 -440 -1347 -28 -83 -34 -93 -56 -93 -37 0 -30 -34 17 -85 171
-186 609 -230 895 -90 114 56 210 175 140 175 -22 0 -36 36 -260 703 -133 395
-236 717 -236 737 l0 35 103 17 c56 9 197 42 312 72 116 31 246 63 290 71 96
19 287 31 338 21 33 -6 38 -11 47 -49 6 -23 19 -48 27 -54 15 -12 15 -47 5
-390 -16 -479 -18 -510 -43 -516 -12 -3 -19 -14 -19 -30 0 -13 -7 -30 -15 -37
-20 -17 -19 -36 5 -60 11 -11 20 -26 20 -33 0 -8 -18 -86 -41 -173 -63 -244
-64 -388 -3 -416 31 -14 34 -63 4 -71 -24 -6 -27 -39 -5 -57 21 -18 19 -57 -4
-65 -26 -8 -33 -30 -19 -60 20 -44 -6 -57 -122 -65 -123 -9 -182 -38 -215
-107 -11 -23 -25 -42 -32 -43 -21 0 -35 -37 -23 -60 11 -20 21 -20 595 -20
574 0 584 0 595 20 12 23 -2 60 -23 60 -7 0 -19 16 -26 35 -25 69 -119 115
-240 116 -36 0 -82 6 -101 12 -33 12 -35 15 -32 53 2 28 -2 45 -13 54 -17 14
-21 70 -5 70 6 0 10 12 10 26 0 17 -6 28 -20 31 -27 7 -27 54 0 78 54 49 50
147 -16 413 l-46 184 21 15 c23 16 28 57 9 70 -7 4 -13 17 -13 28 0 11 -10 24
-22 30 -18 8 -23 18 -23 50 0 22 -7 220 -15 439 -15 390 -15 400 4 420 10 12
22 36 26 54 9 43 34 52 137 52 105 0 261 -24 407 -61 340 -89 422 -108 484
-114 l67 -7 0 -32 c-1 -17 -108 -348 -238 -736 -218 -648 -239 -705 -261 -710
-35 -8 -35 -21 -2 -66 87 -121 353 -207 587 -190 180 12 355 76 439 160 51 52
62 96 23 96 -21 0 -40 52 -261 708 -130 389 -237 721 -237 738 0 29 3 31 53
43 60 13 127 54 127 77 0 11 -5 14 -17 9 -10 -3 -46 -14 -80 -23 -53 -14 -65
-14 -87 -3 -18 10 -29 11 -38 3 -26 -21 -279 45 -485 127 -217 85 -323 111
-460 111 -51 0 -82 4 -78 10 7 12 -60 87 -86 95 -11 4 -19 15 -19 28 0 13 -7
33 -16 45 -8 12 -13 26 -10 31 8 13 -29 184 -41 188 -5 2 -17 -34 -26 -79z
m14 -75 c-10 -17 -10 -17 -11 2 0 11 4 31 8 45 l7 25 3 -27 c2 -15 -1 -35 -7
-45z m13 -63 c-12 -5 -29 -19 -38 -32 -9 -13 -16 -17 -16 -9 0 22 31 51 54 50
21 0 21 0 0 -9z m-2 -91 c-45 -9 -95 -39 -111 -67 -6 -11 -2 -30 14 -63 13
-26 29 -68 36 -95 7 -27 16 -58 22 -69 7 -15 7 -17 -2 -9 -7 6 -25 48 -41 93
-15 44 -35 93 -45 107 -15 24 -15 27 0 51 21 31 89 63 135 62 35 -1 35 -1 -8
-10z m26 -121 c18 -18 14 -46 -9 -58 -26 -14 -49 3 -49 35 0 32 35 46 58 23z
m42 -35 c0 -15 -35 -53 -50 -53 -5 0 2 11 15 24 21 21 23 29 15 53 -9 26 -9
27 5 9 8 -11 15 -26 15 -33z m-246 29 c76 -14 49 -27 -46 -23 -131 5 -217 -12
-434 -85 -203 -68 -366 -114 -399 -113 -11 0 32 15 95 34 63 19 176 56 250 83
272 100 407 127 534 104z m641 -21 c44 -11 134 -40 200 -64 155 -58 358 -123
413 -132 24 -4 41 -9 38 -12 -11 -11 -207 41 -426 112 -262 86 -326 99 -461
93 -66 -2 -98 0 -96 7 10 29 201 27 332 -4z m-375 -47 c-10 -27 -19 -43 -20
-37 0 16 31 95 36 90 2 -2 -5 -25 -16 -53z m-23 -76 c-3 -8 -6 -5 -6 6 -1 11
2 17 5 13 3 -3 4 -12 1 -19z m-1154 -85 c-7 -2 -19 -2 -25 0 -7 3 -2 5 12 5
14 0 19 -2 13 -5z m1077 -428 c0 -396 -1 -435 -16 -435 -15 0 -16 23 -10 258
9 362 18 612 22 612 2 0 4 -196 4 -435z m-1133 419 c-3 -3 -12 -4 -19 -1 -8 3
-5 6 6 6 11 1 17 -2 13 -5z m2320 0 c-3 -3 -12 -4 -19 -1 -8 3 -5 6 6 6 11 1
17 -2 13 -5z m503 -1511 c0 -2 -101 -3 -225 -3 l-225 0 1 668 0 667 224 -665
c124 -366 225 -666 225 -667z m-2640 645 l217 -648 -223 0 -224 0 1 663 c0
364 3 655 6 647 3 -8 104 -306 223 -662z m2160 12 l0 -660 -225 0 c-124 0
-225 2 -225 4 0 3 99 298 220 658 121 359 220 654 220 655 0 2 2 3 5 3 3 0 5
-297 5 -660z m-2430 -5 l0 -655 -220 0 c-121 0 -220 3 -220 8 -1 9 434 1302
437 1302 2 0 3 -295 3 -655z m1273 223 c2 -120 0 -218 -4 -218 -5 0 -8 105 -8
233 2 283 6 277 12 -15z m47 -247 c0 -5 -41 -11 -90 -13 -85 -3 -99 0 -83 15
10 11 173 8 173 -2z m-57 -38 c-18 -2 -48 -2 -65 0 -18 2 -4 4 32 4 36 0 50
-2 33 -4z m82 -23 c4 -6 -35 -10 -109 -10 -82 0 -116 -3 -116 -12 0 -6 -3 -9
-6 -5 -4 3 -4 13 -1 22 5 12 26 15 116 15 62 0 112 -4 116 -10z m-210 -309
c-32 -174 -32 -295 -1 -330 21 -23 12 -26 -28 -11 -60 22 -57 124 9 400 19 80
36 154 37 165 1 11 3 -2 5 -30 3 -27 -7 -113 -22 -194z m202 127 c-3 -8 -6 -5
-6 6 -1 11 2 17 5 13 3 -3 4 -12 1 -19z m10 -40 c-3 -8 -6 -5 -6 6 -1 11 2 17
5 13 3 -3 4 -12 1 -19z m38 -150 c35 -177 31 -262 -15 -276 -11 -4 -9 2 5 18
17 18 20 35 18 99 -1 42 -11 120 -22 175 -21 100 -25 123 -16 115 2 -3 15 -61
30 -131z m-870 -248 c-4 -6 -180 -10 -495 -10 -315 0 -491 4 -495 10 -4 7 163
10 495 10 332 0 499 -3 495 -10z m2420 0 c-4 -6 -180 -10 -496 -10 -319 0
-489 3 -489 10 0 7 172 10 496 10 327 0 493 -3 489 -10z m-3170 -59 c39 -43
105 -74 205 -95 l65 -14 -57 -1 c-67 -1 -180 20 -263 49 -54 18 -165 83 -165
95 0 3 41 5 90 5 l90 0 35 -39z m3131 20 c-53 -59 -228 -118 -371 -126 l-90
-5 65 15 c86 20 184 69 210 105 21 29 23 30 112 30 89 0 91 0 74 -19z m-1716
-51 c0 -15 -7 -20 -25 -20 -18 0 -25 5 -25 20 0 15 7 20 25 20 18 0 25 -5 25
-20z m30 0 c0 -11 -4 -20 -10 -20 -5 0 -10 9 -10 20 0 11 5 20 10 20 6 0 10
-9 10 -20z m-40 -125 c0 -21 -5 -25 -30 -25 -25 0 -30 4 -30 25 0 21 5 25 30
25 25 0 30 -4 30 -25z m17 -12 c-3 -10 -5 -4 -5 12 0 17 2 24 5 18 2 -7 2 -21
0 -30z m190 0 c-3 -10 -5 -4 -5 12 0 17 2 24 5 18 2 -7 2 -21 0 -30z m-12 -50
c-94 -7 -295 -7 -295 0 0 4 75 6 168 5 92 -1 149 -3 127 -5z m-266 -50 c-11
-53 -47 -80 -116 -89 -74 -9 -109 -27 -135 -70 -18 -31 -24 -34 -70 -34 l-50
0 19 33 c31 52 91 79 190 84 47 2 94 8 104 14 21 11 49 59 49 84 0 8 4 15 9
15 5 0 5 -16 0 -37z m179 30 c-26 -2 -71 -2 -100 0 -29 2 -8 3 47 3 55 0 79
-1 53 -3z m145 -85 c12 -7 67 -15 122 -18 110 -6 166 -27 194 -71 l15 -24 -24
21 c-49 42 -90 56 -196 63 -90 7 -108 11 -129 31 -14 13 -25 28 -25 34 0 6 5
3 11 -6 5 -10 20 -23 32 -30z m-335 -20 c-16 -24 -38 -34 -99 -43 -21 -3 -54
-17 -75 -31 l-39 -26 24 26 c24 26 57 39 122 50 20 4 44 15 54 26 24 27 31 25
13 -2z m537 -145 c-515 -7 -935 -7 -935 0 0 4 255 6 568 5 312 -2 477 -4 367
-5z"/>
</g>
</svg>
